<svg class="snow" viewBox="0 0 10 10" xmlns="http://www.w3.org/2000/svg"><path d="M4.974 0c-.538.049-.511 1.607-.511 1.607S3.524.602 3.213.955C2.798 1.425 4.284 2.5 4.284 2.5v1.261l-1.093-.63s-.186-1.824-.801-1.7c-.461.094-.061 1.41-.061 1.41S.95 2.01.669 2.5c-.283.488 1.124 1.266 1.124 1.266s-1.338.31-1.189.756c.2.595 1.872-.153 1.872-.153L3.567 5l-1.09.63S.803 4.884.603 5.478c-.15.446 1.189.756 1.189.756S.386 7.011.668 7.5a.294.294 0 00.014.022c.311.442 1.647-.362 1.647-.362s-.4 1.315.06 1.409c.616.124.802-1.7.802-1.7l1.093-.63V7.5S2.798 8.576 3.213 9.046c.311.352 1.25-.653 1.25-.653S4.433 10 4.999 10c.564 0 .535-1.607.535-1.607s.939 1.005 1.25.653C7.2 8.576 5.713 7.5 5.713 7.5V6.24l1.094.63s.188 1.824.803 1.7c.461-.094.059-1.41.059-1.41s1.338.805 1.649.363c.005-.007.006-.014.01-.022.283-.489-1.124-1.267-1.124-1.267s1.341-.31 1.192-.756c-.2-.594-1.875.154-1.875.154L6.43 5l1.09-.631s1.676.748 1.876.153c.15-.446-1.192-.756-1.192-.756S9.611 2.989 9.33 2.5c-.283-.489-1.66.34-1.66.34s.402-1.315-.059-1.408c-.615-.125-.803 1.699-.803 1.699l-1.094.63v-1.26S7.2 1.424 6.784.954c-.311-.353-1.25.652-1.25.652S5.564 0 5 0h-.025z"/></svg>