<svg class="sun" viewBox="0 0 10 10" xmlns="http://www.w3.org/2000/svg"><path d="M3.549 0l-.17 2.041a3.34 3.34 0 011.404-.41L3.55 0zm3.96.438L5.948 1.76c.48.14.916.386 1.282.707l.28-2.03zM5 2.25A2.75 2.75 0 002.25 5 2.75 2.75 0 005 7.75 2.75 2.75 0 007.75 5 2.75 2.75 0 005 2.25zm-4.564.242l1.322 1.565c.14-.482.386-.92.709-1.286L.436 2.492zm7.521.885c.232.424.378.9.41 1.408L10 3.55l-2.043-.172zM1.629 5.219L0 6.453l2.041.17a3.347 3.347 0 01-.41-1.404h-.002zm6.61.726A3.372 3.372 0 017.53 7.23l2.032.28-1.325-1.565zm-5.47 1.59l-.279 2.03 1.563-1.323a3.381 3.381 0 01-1.283-.707zm3.852.426a3.336 3.336 0 01-1.406.408l1.236 1.633.17-2.041z"/></svg>