<svg viewBox="0 0 10 10" xmlns="http://www.w3.org/2000/svg"><path d="M0 0h10v10H0z" fill="#5158a9"/><path d="M3.84 1l-.137 1.632a2.672 2.672 0 011.123-.328L3.84.999zm3.167.35L5.758 2.407c.384.112.733.309 1.026.566l.224-1.624zM5 2.8A2.2 2.2 0 002.8 5 2.2 2.2 0 005 7.2 2.2 2.2 0 007.2 5 2.2 2.2 0 005 2.8zm-3.651.193l1.057 1.252c.112-.386.31-.736.568-1.029zm6.017.708c.185.339.302.72.328 1.126L9 3.84l-1.634-.137zM2.303 5.174L1 6.162l1.633.136a2.678 2.678 0 01-.328-1.124zm5.288.581a2.698 2.698 0 01-.567 1.028l1.626.224-1.06-1.252zM3.215 7.027l-.223 1.624 1.25-1.058a2.705 2.705 0 01-1.026-.566zm3.082.341a2.669 2.669 0 01-1.125.326l.989 1.307z" fill="gold"/></svg>
